***************************************************************************

                        XxX Releasers Group

***************************************************************************

screens;
 
http://adulthub.eu/?v=121207aust.jpeg
 
http://adulthub.eu/?v=121207upu.jpeg
 
http://adulthub.eu/?v=121207iei.jpeg

****************************************************************************

Format                                   : MPEG-4
Format profile                           : Base Media
Codec ID                                 : isom
File size                                : 664 MiB
Duration                                 : 59mn 2s
Overall bit rate mode                    : Variable
Overall bit rate                         : 1 572 Kbps
Encoded date                             : UTC 2012-12-04 21:42:18
Tagged date                              : UTC 2012-12-04 21:42:18
Writing application                      : Lavf53.32.100

Video
ID                                       : 1
Format                                   : AVC
Format/Info                              : Advanced Video Codec
Format profile                           : Main@L3.1
Format settings, CABAC                   : Yes
Format settings, ReFrames                : 6 frames
Codec ID                                 : avc1
Codec ID/Info                            : Advanced Video Coding
Duration                                 : 59mn 2s
Bit rate                                 : 1 500 Kbps
Width                                    : 852 pixels
Height                                   : 480 pixels
Display aspect ratio                     : 16:9
Original display aspect ratio            : 16:9
Frame rate mode                          : Constant
Frame rate                               : 29.970 fps
Color space                              : YUV
Chroma subsampling                       : 4:2:0
Bit depth                                : 8 bits
Scan type                                : Progressive
Bits/(Pixel*Frame)                       : 0.122
Stream size                              : 629 MiB (95%)
Writing library                          : x264 core 
Language                                 : English
Encoded date                             : UTC 2012-12-04 21:42:18
Tagged date                              : UTC 2012-12-04 21:42:18

Audio
ID                                       : 2
Format                                   : AAC
Format/Info                              : Advanced Audio Codec
Format profile                           : LC
Codec ID                                 : 40
Duration                                 : 59mn 2s
Bit rate mode                            : Variable
Bit rate                                 : 74.7 Kbps
Maximum bit rate                         : 96.0 Kbps
Channel(s)                               : 2 channels
Channel positions                        : Front: L R
Sampling rate                            : 44.1 KHz
Compression mode                         : Lossy
Delay relative to video                  : 67ms
Stream size                              : 31.6 MiB (5%)
Language                                 : English
Encoded date                             : UTC 2012-12-04 21:42:18
Tagged date                              : UTC 2012-12-04 21:42:18